<svg xmlns="http://www.w3.org/2000/svg" width="16" height="16" fill="currentColor" class="bi bi-upload" viewBox="0 0 16 16">
  <!-- Tray (same as download icon) -->
  <path d="M.5 9.9a.5.5 0 0 1 .5.5v2.5a1 1 0 0 0 1 1h12a1 1 0 0 0 1-1v-2.5a.5.5 0 0 1 1 0v2.5a2 2 0 0 1-2 2H2a2 2 0 0 1-2-2v-2.5a.5.5 0 0 1 .5-.5"/>
  <!-- Arrow: reuse download arrow path but flip vertically to point up -->
  <!-- Shift arrow slightly more up (translate y=13) so it lines up visually with export icon -->
  <path transform="translate(0,13) scale(1,-1)" d="M7.646 11.854a.5.5 0 0 0 .708 0l3-3a.5.5 0 0 0-.708-.708L8.5 10.293V1.5a.5.5 0 0 0-1 0v8.793L5.354 8.146a.5.5 0 1 0-.708.708z"/>
</svg>